Coordinates
version=1
nRows=11
nColumns=40
inDegrees=yes

Units are S.I. units (second, meters, Newtons, ...)
Angles are in degrees.

endheader
time	pelvis_tilt	pelvis_list	pelvis_rotation	pelvis_tx	pelvis_ty	pelvis_tz	hip_flexion_r	hip_adduction_r	hip_rotation_r	knee_angle_r	knee_angle_r_beta	ankle_angle_r	subtalar_angle_r	mtp_angle_r	hip_flexion_l	hip_adduction_l	hip_rotation_l	knee_angle_l	knee_angle_l_beta	ankle_angle_l	subtalar_angle_l	mtp_angle_l	lumbar_extension	lumbar_bending	lumbar_rotation	arm_flex_r	arm_add_r	arm_rot_r	elbow_flex_r	pro_sup_r	wrist_flex_r	wrist_dev_r	arm_flex_l	arm_add_l	arm_rot_l	elbow_flex_l	pro_sup_l	wrist_flex_l	wrist_dev_l
     10.40714286	     -1.75438740	     -3.71420863	     -1.27664693	      0.88624043	      0.93621556	      0.43589037	     31.16650849	     -2.93523355	     -6.57863693	     50.04736330	     50.04736330	      3.27941387	    -15.18718344	      4.63349659	      6.96127063	     -3.09774930	     -7.75402067	     17.35447646	     17.35447646	     13.92844103	    -12.37420351	     -1.23002181	     -9.37938180	      6.16081839	      3.24455217	     -3.95986989	    -11.18464988	     -3.70327204	     26.80759090	     46.51653202	      0.00000000	      0.00000000	     15.98327061	    -13.20864437	      0.00107980	     65.27018964	     46.52320170	      0.00000000	      0.00000000
     10.41928571	     -1.62131361	     -3.87286082	     -1.50119845	      0.88539861	      0.93632838	      0.43612867	     30.75743658	     -2.55579373	     -6.92751447	     46.06787153	     46.06787153	      2.49445371	    -14.28737164	      1.94773867	      5.93638162	     -3.27014740	     -8.24004962	     16.61200586	     16.61200586	     13.89112570	    -11.86580965	     -2.38894361	     -9.79213557	      6.34692291	      2.85853286	     -4.45614338	    -11.23626897	     -4.17752357	     24.78850351	     46.64049727	      0.00000000	      0.00000000	     15.59756035	    -13.56723168	     -0.98726280	     69.78306676	     46.71751502	      0.00000000	      0.00000000
     10.43142857	     -1.69865023	     -3.88833120	     -1.73041095	      0.88446232	      0.93602682	      0.43642453	     30.58750043	     -2.30857690	     -7.25528584	     42.13743109	     42.13743109	      2.48359382	    -12.73281294	      1.66587840	      5.25457771	     -3.26316697	     -8.53020289	     16.07848792	     16.07848792	     14.06555243	    -11.59343493	     -2.55567683	     -9.84431799	      6.41589697	      3.05474769	     -5.77208406	    -11.41068541	     -4.28747099	     24.13844425	     46.66621490	      0.00000000	      0.00000000	     16.60068756	    -13.48431545	     -1.45417519	     70.99108287	     46.79264164	      0.00000000	      0.00000000
     10.44357143	     -1.97753104	     -3.89061629	     -1.93422190	      0.88349121	      0.93528791	      0.43691177	     30.53746946	     -1.99333288	     -7.52590737	     38.07091711	     38.07091711	      2.47544102	    -11.11301743	      1.91135061	      4.91914084	     -3.27464317	     -8.75076652	     15.77433228	     15.77433228	     14.27612013	    -11.43048031	     -2.71184336	     -9.61190248	      6.42441608	      2.90560599	     -6.93148087	    -11.54006772	     -4.35561472	     23.76747421	     46.67696045	      0.00000000	      0.00000000	     17.42619574	    -13.75610095	     -1.73506867	     71.84467494	     46.83493055	      0.00000000	      0.00000000
     10.45571429	     -1.90346748	     -3.88009345	     -2.13522153	      0.88303814	      0.93491506	      0.43731779	     29.85688631	     -1.83806984	     -8.23601763	     33.75966872	     33.75966872	      2.20438232	     -8.48354480	      0.76452121	      4.00392568	     -3.27798375	     -9.35164892	     15.18160678	     15.18160678	     14.44615209	    -10.66822082	     -3.39766452	     -9.83828182	      6.46651716	      2.99583736	     -8.31748946	    -11.74088168	     -4.80189006	     23.86889907	     46.69627916	      0.00000000	      0.00000000	     17.85664662	    -13.69669350	     -2.26841230	     74.20542379	     46.94343739	      0.00000000	      0.00000000
     10.46785714	     -1.94603227	     -3.87497399	     -2.30657558	      0.88258892	      0.93423877	      0.43796298	     29.22138302	     -1.53393313	     -8.80388300	     29.45426204	     29.45426204	      2.07005758	     -6.09513680	      0.84430329	      3.34449295	     -3.28628073	     -9.66312014	     14.82767349	     14.82767349	     14.68545805	    -10.33555337	     -3.74819289	     -9.86144792	      6.46264481	      2.98723385	     -9.45109597	    -11.91587976	     -4.99775071	     23.76368798	     46.70539237	      0.00000000	      0.00000000	     18.52026153	    -13.79905487	     -2.57309176	     75.35212280	     47.00061236	      0.00000000	      0.00000000
     10.48000000	     -2.00908591	     -3.77824660	     -2.48014382	      0.88235773	      0.93338089	      0.43868487	     28.55910993	     -1.33571700	     -9.50450208	     25.30278056	     25.30278056	      1.85438314	     -3.25480512	      1.06652944	      2.64245537	     -3.20300014	    -10.10735836	     14.37283278	     14.37283278	     14.90371219	     -9.75965340	     -4.26018249	     -9.84831002	      6.37194347	      2.97205917	    -10.65122753	    -12.04871726	     -5.29345412	     23.94144992	     46.70806102	      0.00000000	      0.00000000	     19.01355796	    -13.87266476	     -2.87630049	     76.66407374	     47.06479223	      0.00000000	      0.00000000
     10.49214286	     -2.05896279	     -3.65944544	     -2.64412521	      0.88242283	      0.93234982	      0.43958295	     27.88239261	     -1.14474771	    -10.29633748	     21.49768969	     21.49768969	      1.75610289	     -0.35056283	      1.79909438	      1.90982539	     -3.11038299	    -10.60727942	     13.92297705	     13.92297705	     15.09855002	     -9.14148574	     -4.88624876	     -9.79167420	      6.22347749	      2.92502434	    -11.85498960	    -12.16960182	     -5.69573580	     24.40284238	     46.70423385	      0.00000000	      0.00000000	     19.40378070	    -13.96178433	     -3.15446559	     77.91519283	     47.13414792	      0.00000000	      0.00000000
     10.50428571	     -2.12211209	     -3.59551967	     -2.78988308	      0.88255406	      0.93119845	      0.44066175	     27.20270829	     -0.78980904	    -10.77323627	     17.98905756	     17.98905756	      1.45933385	      1.73883676	      2.82542997	      1.26586584	     -3.06411538	    -10.84781233	     13.62264201	     13.62264201	     15.39825538	     -8.91199763	     -5.19306339	     -9.69346386	      6.15708428	      2.88625226	    -12.76179718	    -12.26339891	     -5.83758570	     24.38006724	     46.70589166	      0.00000000	      0.00000000	     19.83343981	    -14.03587315	     -3.27701255	     78.57188737	     47.16597260	      0.00000000	      0.00000000
     10.51642857	     -2.03045606	     -3.43423290	     -2.96790545	      0.88312430	      0.93010385	      0.44185812	     26.53744273	     -0.68275503	    -11.71679406	     15.37421175	     15.37421175	      1.74076562	      4.53142276	      4.52193626	      0.31519358	     -2.91803647	    -11.39353318	     13.12102732	     13.12102732	     15.64864128	     -8.18040830	     -5.79299003	     -9.75149828	      5.93051330	      2.93206699	    -13.76571687	    -12.32782810	     -6.20979492	     24.89805094	     46.69729023	      0.00000000	      0.00000000	     20.18567967	    -14.10540637	     -3.41973421	     79.51008318	     47.22012328	      0.00000000	      0.00000000
     10.52857143	     -2.03644316	     -3.38048756	     -3.11350348	      0.88376689	      0.92883980	      0.44329934	     25.99705118	     -0.38648132	    -12.25448544	     13.23938716	     13.23938716	      1.73286564	      6.02320960	      5.76750071	     -0.43523241	     -2.89257686	    -11.66847300	     12.80675090	     12.80675090	     15.97391491	     -7.89113093	     -6.08283216	     -9.63720863	      5.83662918	      2.91919310	    -14.52455887	    -12.40597301	     -6.41442090	     25.05038076	     46.69584764	      0.00000000	      0.00000000	     20.44624408	    -14.15415897	     -3.48511013	     79.98598392	     47.24902629	      0.00000000	      0.00000000
